<svg width="1267" height="932" viewBox="0 0 1267 932" fill="none" xmlns="http://www.w3.org/2000/svg">
<path d="M851 121L633.5 3.05176e-05L416 121V363L633.5 484L851 363V121ZM633.5 55.4987L776.244 134.875L703.422 175.208C686.022 156.816 661.211 145.2 633.5 145.2C605.789 145.2 580.978 156.816 563.578 175.208L490.756 134.875L633.5 55.4987ZM609.333 415.272L464.333 334.605V175.531L540.056 217.477C537.8 225.544 536.833 233.611 536.833 242C536.833 287.173 567.767 324.925 609.333 335.896V415.272ZM585.167 242C585.167 215.219 606.756 193.6 633.5 193.6C660.244 193.6 681.833 215.219 681.833 242C681.833 268.781 660.244 290.4 633.5 290.4C606.756 290.4 585.167 268.781 585.167 242ZM657.667 415.272V335.896C699.233 324.925 730.167 287.173 730.167 242C730.167 233.611 729.2 225.544 726.944 217.477L802.667 175.531V334.605L657.667 415.272Z" fill="white"/>
<path d="M484.663 604.752H443.575V578.768H562.103V604.752H521.015V674H484.663V604.752ZM571.519 578.768H607.871V612.432H667.391V578.768H703.615V674H667.391V637.776H607.871V674H571.519V578.768ZM821.238 578.768V602.064H751.734V613.968H819.83V637.136H751.734V650.192H822.262V674H715.894V578.768H821.238ZM377.46 803.792C367.732 803.792 359.284 803.024 352.116 801.488C345.033 799.952 338.974 797.947 333.94 795.472C328.99 792.912 324.937 789.968 321.78 786.64C318.708 783.312 316.276 779.899 314.484 776.4C312.777 772.816 311.625 769.275 311.028 765.776C310.43 762.192 310.132 758.907 310.132 755.92V752.208C310.132 749.221 310.388 745.979 310.9 742.48C311.497 738.896 312.649 735.355 314.356 731.856C316.062 728.357 318.452 724.987 321.524 721.744C324.596 718.501 328.606 715.643 333.556 713.168C338.59 710.693 344.692 708.731 351.86 707.28C359.028 705.744 367.561 704.976 377.46 704.976H382.451C392.094 704.976 400.414 705.659 407.412 707.024C414.494 708.304 420.468 710.053 425.332 712.272C430.281 714.405 434.249 716.88 437.236 719.696C440.308 722.427 442.697 725.243 444.404 728.144C446.11 730.96 447.262 733.733 447.86 736.464C448.457 739.109 448.756 741.456 448.756 743.504V745.168H410.996C410.825 744.571 410.398 743.461 409.716 741.84C409.033 740.219 407.582 738.597 405.364 736.976C403.23 735.269 400.116 733.776 396.02 732.496C392.009 731.216 386.548 730.576 379.636 730.576C373.065 730.576 367.689 731.259 363.508 732.624C359.412 733.904 356.169 735.611 353.78 737.744C351.476 739.877 349.897 742.267 349.044 744.912C348.19 747.557 347.764 750.203 347.764 752.848V754.384C347.764 756.944 348.233 759.632 349.172 762.448C350.11 765.179 351.774 767.739 354.164 770.128C356.553 772.432 359.796 774.352 363.892 775.888C368.073 777.339 373.364 778.064 379.764 778.064C384.457 778.064 388.468 777.723 391.796 777.04C395.124 776.357 397.94 775.504 400.244 774.48C402.548 773.456 404.382 772.347 405.748 771.152C407.113 769.872 408.18 768.677 408.948 767.568C409.716 766.373 410.228 765.307 410.484 764.368C410.825 763.429 411.038 762.789 411.124 762.448H448.756V764.496C448.756 766.544 448.457 768.976 447.86 771.792C447.262 774.523 446.068 777.339 444.276 780.24C442.569 783.141 440.18 786 437.108 788.816C434.036 791.632 430.025 794.149 425.076 796.368C420.212 798.587 414.281 800.379 407.284 801.744C400.286 803.109 392.009 803.792 382.451 803.792H377.46ZM457.457 706.768H493.809V740.432H553.329V706.768H589.553V802H553.329V765.776H493.809V802H457.457V706.768ZM707.176 706.768V730.064H637.672V741.968H705.768V765.136H637.672V778.192H708.2V802H601.832V706.768H707.176ZM781.677 730.064L766.061 762.832H797.677L781.677 730.064ZM809.325 786.64H754.925L747.629 802H710.764L757.869 706.768H806.765L856.557 802H816.749L809.325 786.64ZM879.101 732.752H838.013V706.768H956.541V732.752H915.453V802H879.101V732.752ZM203.335 931.792C193.607 931.792 185.159 931.024 177.991 929.488C170.908 927.952 164.849 925.947 159.815 923.472C154.865 920.912 150.812 917.968 147.655 914.64C144.583 911.312 142.151 907.899 140.359 904.4C138.652 900.816 137.5 897.275 136.903 893.776C136.305 890.192 136.007 886.907 136.007 883.92V880.208C136.007 877.221 136.263 873.979 136.775 870.48C137.372 866.896 138.524 863.355 140.231 859.856C141.937 856.357 144.327 852.987 147.399 849.744C150.471 846.501 154.481 843.643 159.431 841.168C164.465 838.693 170.567 836.731 177.735 835.28C184.903 833.744 193.436 832.976 203.335 832.976H208.326C217.969 832.976 226.289 833.659 233.287 835.024C240.369 836.304 246.343 838.053 251.207 840.272C256.156 842.405 260.124 844.88 263.111 847.696C266.183 850.427 268.572 853.243 270.279 856.144C271.985 858.96 273.137 861.733 273.735 864.464C274.332 867.109 274.631 869.456 274.631 871.504V873.168H236.871C236.7 872.571 236.273 871.461 235.591 869.84C234.908 868.219 233.457 866.597 231.239 864.976C229.105 863.269 225.991 861.776 221.895 860.496C217.884 859.216 212.423 858.576 205.511 858.576C198.94 858.576 193.564 859.259 189.383 860.624C185.287 861.904 182.044 863.611 179.655 865.744C177.351 867.877 175.772 870.267 174.919 872.912C174.065 875.557 173.639 878.203 173.639 880.848V882.384C173.639 884.944 174.108 887.632 175.047 890.448C175.985 893.179 177.649 895.739 180.039 898.128C182.428 900.432 185.671 902.352 189.767 903.888C193.948 905.339 199.239 906.064 205.639 906.064C210.332 906.064 214.343 905.723 217.671 905.04C220.999 904.357 223.815 903.504 226.119 902.48C228.423 901.456 230.257 900.347 231.623 899.152C232.988 897.872 234.055 896.677 234.823 895.568C235.591 894.373 236.103 893.307 236.359 892.368C236.7 891.429 236.913 890.789 236.999 890.448H274.631V892.496C274.631 894.544 274.332 896.976 273.735 899.792C273.137 902.523 271.943 905.339 270.151 908.24C268.444 911.141 266.055 914 262.983 916.816C259.911 919.632 255.9 922.149 250.951 924.368C246.087 926.587 240.156 928.379 233.159 929.744C226.161 931.109 217.884 931.792 208.326 931.792H203.335ZM355.396 832.976C365.636 832.976 374.468 833.744 381.892 835.28C389.316 836.731 395.588 838.736 400.708 841.296C405.828 843.771 409.966 846.629 413.124 849.872C416.281 853.115 418.713 856.485 420.42 859.984C422.126 863.483 423.278 866.981 423.876 870.48C424.473 873.979 424.771 877.221 424.771 880.208V884.048C424.771 887.035 424.473 890.277 423.876 893.776C423.364 897.275 422.212 900.816 420.42 904.4C418.713 907.899 416.281 911.312 413.124 914.64C410.052 917.883 405.913 920.784 400.708 923.344C395.588 925.904 389.316 927.952 381.892 929.488C374.468 931.024 365.636 931.792 355.396 931.792H349.636C339.396 931.792 330.521 931.024 323.012 929.488C315.588 927.952 309.316 925.904 304.196 923.344C299.076 920.784 294.937 917.883 291.78 914.64C288.622 911.312 286.19 907.899 284.484 904.4C282.777 900.816 281.625 897.275 281.028 893.776C280.43 890.277 280.132 887.035 280.132 884.048V880.208C280.132 877.221 280.388 873.979 280.9 870.48C281.497 866.981 282.649 863.483 284.356 859.984C286.148 856.485 288.622 853.115 291.78 849.872C294.937 846.629 299.076 843.771 304.196 841.296C309.316 838.736 315.588 836.731 323.012 835.28C330.436 833.744 339.31 832.976 349.636 832.976H355.396ZM387.14 881.104C387.14 878.544 386.628 875.941 385.604 873.296C384.665 870.651 382.916 868.261 380.356 866.128C377.796 863.909 374.254 862.117 369.732 860.752C365.294 859.301 359.534 858.576 352.451 858.576C345.284 858.576 339.438 859.301 334.916 860.752C330.393 862.117 326.852 863.909 324.292 866.128C321.817 868.261 320.11 870.651 319.172 873.296C318.233 875.941 317.764 878.544 317.764 881.104V882.64C317.764 885.115 318.233 887.76 319.172 890.576C320.196 893.307 321.988 895.824 324.548 898.128C327.108 900.432 330.606 902.352 335.044 903.888C339.566 905.339 345.369 906.064 352.451 906.064C359.449 906.064 365.209 905.339 369.732 903.888C374.254 902.437 377.796 900.603 380.356 898.384C382.916 896.08 384.665 893.563 385.604 890.832C386.628 888.101 387.14 885.456 387.14 882.896V881.104ZM433.832 834.768H483.752L512.936 888.272L542.632 834.768H590.504V930H554.536V870.608L521.128 930H502.568L469.288 870.608V930H433.832V834.768ZM639.184 900.176V930H602.832V834.768H682.192C690.981 834.768 698.277 835.579 704.08 837.2C709.882 838.821 714.49 841.083 717.904 843.984C721.402 846.8 723.834 850.128 725.2 853.968C726.65 857.808 727.376 861.904 727.376 866.256V868.304C727.376 872.656 726.65 876.752 725.2 880.592C723.749 884.432 721.274 887.803 717.776 890.704C714.362 893.605 709.754 895.909 703.952 897.616C698.149 899.323 690.896 900.176 682.192 900.176H639.184ZM639.184 876.368H677.84C682.021 876.368 685.05 875.6 686.928 874.064C688.89 872.443 689.872 870.309 689.872 867.664V867.28C689.872 864.549 688.933 862.416 687.056 860.88C685.178 859.344 682.106 858.576 677.84 858.576H639.184V876.368ZM782.427 858.064L766.811 890.832H798.427L782.427 858.064ZM810.075 914.64H755.675L748.379 930H711.514L758.619 834.768H807.515L857.307 930H817.499L810.075 914.64ZM902.161 834.768L957.457 888.912V834.768H993.553V930H957.201L897.553 872.272V930H861.457V834.768H902.161ZM1049.22 894.16L997.127 834.768H1040.65L1068.42 867.664L1096.71 834.768H1136.52L1085.58 894.416V930H1049.22V894.16Z" fill="white"/>
</svg>
