<svg width="1731" height="484" viewBox="0 0 1731 484" fill="none" xmlns="http://www.w3.org/2000/svg">
<path d="M435 121L217.5 0L0 121V363L217.5 484L435 363V121ZM217.5 55.4987L360.244 134.875L287.422 175.208C270.022 156.816 245.211 145.2 217.5 145.2C189.789 145.2 164.978 156.816 147.578 175.208L74.7556 134.875L217.5 55.4987ZM193.333 415.272L48.3333 334.605V175.531L124.056 217.477C121.8 225.544 120.833 233.611 120.833 242C120.833 287.173 151.767 324.925 193.333 335.896V415.272ZM169.167 242C169.167 215.219 190.756 193.6 217.5 193.6C244.244 193.6 265.833 215.219 265.833 242C265.833 268.781 244.244 290.4 217.5 290.4C190.756 290.4 169.167 268.781 169.167 242ZM241.667 415.272V335.896C283.233 324.925 314.167 287.173 314.167 242C314.167 233.611 313.2 225.544 310.944 217.477L386.667 175.531V334.605L241.667 415.272Z" fill="#0B76EE"/>
<path d="M508.288 84.752H467.2V58.768H585.728V84.752H544.64V154H508.288V84.752ZM595.144 58.768H631.496V92.432H691.016V58.768H727.24V154H691.016V117.776H631.496V154H595.144V58.768ZM844.863 58.768V82.064H775.359V93.968H843.455V117.136H775.359V130.192H845.887V154H739.519V58.768H844.863ZM534.272 283.792C524.544 283.792 516.096 283.024 508.928 281.488C501.845 279.952 495.787 277.947 490.752 275.472C485.803 272.912 481.749 269.968 478.592 266.64C475.52 263.312 473.088 259.899 471.296 256.4C469.589 252.816 468.437 249.275 467.84 245.776C467.243 242.192 466.944 238.907 466.944 235.92V232.208C466.944 229.221 467.2 225.979 467.712 222.48C468.309 218.896 469.461 215.355 471.168 211.856C472.875 208.357 475.264 204.987 478.336 201.744C481.408 198.501 485.419 195.643 490.368 193.168C495.403 190.693 501.504 188.731 508.672 187.28C515.84 185.744 524.373 184.976 534.272 184.976H539.264C548.907 184.976 557.227 185.659 564.224 187.024C571.307 188.304 577.28 190.053 582.144 192.272C587.093 194.405 591.061 196.88 594.048 199.696C597.12 202.427 599.509 205.243 601.216 208.144C602.923 210.96 604.075 213.733 604.672 216.464C605.269 219.109 605.568 221.456 605.568 223.504V225.168H567.808C567.637 224.571 567.211 223.461 566.528 221.84C565.845 220.219 564.395 218.597 562.176 216.976C560.043 215.269 556.928 213.776 552.832 212.496C548.821 211.216 543.36 210.576 536.448 210.576C529.877 210.576 524.501 211.259 520.32 212.624C516.224 213.904 512.981 215.611 510.592 217.744C508.288 219.877 506.709 222.267 505.856 224.912C505.003 227.557 504.576 230.203 504.576 232.848V234.384C504.576 236.944 505.045 239.632 505.984 242.448C506.923 245.179 508.587 247.739 510.976 250.128C513.365 252.432 516.608 254.352 520.704 255.888C524.885 257.339 530.176 258.064 536.576 258.064C541.269 258.064 545.28 257.723 548.608 257.04C551.936 256.357 554.752 255.504 557.056 254.48C559.36 253.456 561.195 252.347 562.56 251.152C563.925 249.872 564.992 248.677 565.76 247.568C566.528 246.373 567.04 245.307 567.296 244.368C567.637 243.429 567.851 242.789 567.936 242.448H605.568V244.496C605.568 246.544 605.269 248.976 604.672 251.792C604.075 254.523 602.88 257.339 601.088 260.24C599.381 263.141 596.992 266 593.92 268.816C590.848 271.632 586.837 274.149 581.888 276.368C577.024 278.587 571.093 280.379 564.096 281.744C557.099 283.109 548.821 283.792 539.264 283.792H534.272ZM614.269 186.768H650.621V220.432H710.141V186.768H746.365V282H710.141V245.776H650.621V282H614.269V186.768ZM863.988 186.768V210.064H794.484V221.968H862.58V245.136H794.484V258.192H865.012V282H758.644V186.768H863.988ZM938.489 210.064L922.873 242.832H954.489L938.489 210.064ZM966.137 266.64H911.737L904.441 282H867.577L914.681 186.768H963.577L1013.37 282H973.561L966.137 266.64ZM1035.91 212.752H994.825V186.768H1113.35V212.752H1072.27V282H1035.91V212.752ZM534.272 411.792C524.544 411.792 516.096 411.024 508.928 409.488C501.845 407.952 495.787 405.947 490.752 403.472C485.803 400.912 481.749 397.968 478.592 394.64C475.52 391.312 473.088 387.899 471.296 384.4C469.589 380.816 468.437 377.275 467.84 373.776C467.243 370.192 466.944 366.907 466.944 363.92V360.208C466.944 357.221 467.2 353.979 467.712 350.48C468.309 346.896 469.461 343.355 471.168 339.856C472.875 336.357 475.264 332.987 478.336 329.744C481.408 326.501 485.419 323.643 490.368 321.168C495.403 318.693 501.504 316.731 508.672 315.28C515.84 313.744 524.373 312.976 534.272 312.976H539.264C548.907 312.976 557.227 313.659 564.224 315.024C571.307 316.304 577.28 318.053 582.144 320.272C587.093 322.405 591.061 324.88 594.048 327.696C597.12 330.427 599.509 333.243 601.216 336.144C602.923 338.96 604.075 341.733 604.672 344.464C605.269 347.109 605.568 349.456 605.568 351.504V353.168H567.808C567.637 352.571 567.211 351.461 566.528 349.84C565.845 348.219 564.395 346.597 562.176 344.976C560.043 343.269 556.928 341.776 552.832 340.496C548.821 339.216 543.36 338.576 536.448 338.576C529.877 338.576 524.501 339.259 520.32 340.624C516.224 341.904 512.981 343.611 510.592 345.744C508.288 347.877 506.709 350.267 505.856 352.912C505.003 355.557 504.576 358.203 504.576 360.848V362.384C504.576 364.944 505.045 367.632 505.984 370.448C506.923 373.179 508.587 375.739 510.976 378.128C513.365 380.432 516.608 382.352 520.704 383.888C524.885 385.339 530.176 386.064 536.576 386.064C541.269 386.064 545.28 385.723 548.608 385.04C551.936 384.357 554.752 383.504 557.056 382.48C559.36 381.456 561.195 380.347 562.56 379.152C563.925 377.872 564.992 376.677 565.76 375.568C566.528 374.373 567.04 373.307 567.296 372.368C567.637 371.429 567.851 370.789 567.936 370.448H605.568V372.496C605.568 374.544 605.269 376.976 604.672 379.792C604.075 382.523 602.88 385.339 601.088 388.24C599.381 391.141 596.992 394 593.92 396.816C590.848 399.632 586.837 402.149 581.888 404.368C577.024 406.587 571.093 408.379 564.096 409.744C557.099 411.109 548.821 411.792 539.264 411.792H534.272ZM686.333 312.976C696.573 312.976 705.405 313.744 712.829 315.28C720.253 316.731 726.525 318.736 731.645 321.296C736.765 323.771 740.904 326.629 744.061 329.872C747.218 333.115 749.65 336.485 751.357 339.984C753.064 343.483 754.216 346.981 754.813 350.48C755.41 353.979 755.709 357.221 755.709 360.208V364.048C755.709 367.035 755.41 370.277 754.813 373.776C754.301 377.275 753.149 380.816 751.357 384.4C749.65 387.899 747.218 391.312 744.061 394.64C740.989 397.883 736.85 400.784 731.645 403.344C726.525 405.904 720.253 407.952 712.829 409.488C705.405 411.024 696.573 411.792 686.333 411.792H680.573C670.333 411.792 661.458 411.024 653.949 409.488C646.525 407.952 640.253 405.904 635.133 403.344C630.013 400.784 625.874 397.883 622.717 394.64C619.56 391.312 617.128 387.899 615.421 384.4C613.714 380.816 612.562 377.275 611.965 373.776C611.368 370.277 611.069 367.035 611.069 364.048V360.208C611.069 357.221 611.325 353.979 611.837 350.48C612.434 346.981 613.586 343.483 615.293 339.984C617.085 336.485 619.56 333.115 622.717 329.872C625.874 326.629 630.013 323.771 635.133 321.296C640.253 318.736 646.525 316.731 653.949 315.28C661.373 313.744 670.248 312.976 680.573 312.976H686.333ZM718.077 361.104C718.077 358.544 717.565 355.941 716.541 353.296C715.602 350.651 713.853 348.261 711.293 346.128C708.733 343.909 705.192 342.117 700.669 340.752C696.232 339.301 690.472 338.576 683.389 338.576C676.221 338.576 670.376 339.301 665.853 340.752C661.33 342.117 657.789 343.909 655.229 346.128C652.754 348.261 651.048 350.651 650.109 353.296C649.17 355.941 648.701 358.544 648.701 361.104V362.64C648.701 365.115 649.17 367.76 650.109 370.576C651.133 373.307 652.925 375.824 655.485 378.128C658.045 380.432 661.544 382.352 665.981 383.888C670.504 385.339 676.306 386.064 683.389 386.064C690.386 386.064 696.146 385.339 700.669 383.888C705.192 382.437 708.733 380.603 711.293 378.384C713.853 376.08 715.602 373.563 716.541 370.832C717.565 368.101 718.077 365.456 718.077 362.896V361.104ZM764.769 314.768H814.689L843.873 368.272L873.569 314.768H921.441V410H885.473V350.608L852.065 410H833.505L800.225 350.608V410H764.769V314.768ZM970.121 380.176V410H933.769V314.768H1013.13C1021.92 314.768 1029.21 315.579 1035.02 317.2C1040.82 318.821 1045.43 321.083 1048.84 323.984C1052.34 326.8 1054.77 330.128 1056.14 333.968C1057.59 337.808 1058.31 341.904 1058.31 346.256V348.304C1058.31 352.656 1057.59 356.752 1056.14 360.592C1054.69 364.432 1052.21 367.803 1048.71 370.704C1045.3 373.605 1040.69 375.909 1034.89 377.616C1029.09 379.323 1021.83 380.176 1013.13 380.176H970.121ZM970.121 356.368H1008.78C1012.96 356.368 1015.99 355.6 1017.87 354.064C1019.83 352.443 1020.81 350.309 1020.81 347.664V347.28C1020.81 344.549 1019.87 342.416 1017.99 340.88C1016.12 339.344 1013.04 338.576 1008.78 338.576H970.121V356.368ZM1113.36 338.064L1097.75 370.832H1129.36L1113.36 338.064ZM1141.01 394.64H1086.61L1079.32 410H1042.45L1089.56 314.768H1138.45L1188.24 410H1148.44L1141.01 394.64ZM1233.1 314.768L1288.39 368.912V314.768H1324.49V410H1288.14L1228.49 352.272V410H1192.39V314.768H1233.1ZM1380.16 374.16L1328.06 314.768H1371.59L1399.36 347.664L1427.65 314.768H1467.46L1416.51 374.416V410H1380.16V374.16Z" fill="#0B76EE"/>
</svg>
